<?xml version="1.0" encoding="UTF-8" standalone="no" ?>
<!DOCTYPE svg PUBLIC "-//W3C//DTD SVG 1.1//EN" "http://www.w3.org/Graphics/SVG/1.1/DTD/svg11.dtd">
<svg xmlns="http://www.w3.org/2000/svg" xmlns:xlink="http://www.w3.org/1999/xlink" version="1.1" width="1080" height="1080" viewBox="0 0 1080 1080" xml:space="preserve">
<desc>Created with Fabric.js 5.2.4</desc>
<defs>
</defs>
<g transform="matrix(1 0 0 1 540 540)" id="90ab4942-79c2-41c9-8192-a20443b7896e"  >
<rect style="stroke: none; stroke-width: 1; stroke-dasharray: none; stroke-linecap: butt; stroke-dashoffset: 0; stroke-linejoin: miter; stroke-miterlimit: 4; fill: rgb(255,255,255); fill-rule: nonzero; opacity: 1; visibility: hidden;" vector-effect="non-scaling-stroke"  x="-540" y="-540" rx="0" ry="0" width="1080" height="1080" />
</g>
<g transform="matrix(1 0 0 1 540 540)" id="025bd48f-9057-417b-ba05-78163f873587"  >
</g>
<g transform="matrix(2.11 0 0 2.11 540 540)"  >
<g style=""   >
		<g transform="matrix(1 0 0 1 -0.37 0)" id="night"  >
<path style="stroke: none; stroke-width: 1; stroke-dasharray: none; stroke-linecap: butt; stroke-dashoffset: 0; stroke-linejoin: miter; stroke-miterlimit: 4; fill: rgb(255,255,255); fill-rule: nonzero; opacity: 1;" vector-effect="non-scaling-stroke"  transform=" translate(-255.63, -256)" d="M 267.93 512 C 119.84425654890984 511.8840644395955 -0.11049946548524758 391.74574760720344 5.684341886080802e-14 243.6599999999999 C -0.010484118220511755 140.33462453052005 59.251070462562225 46.1639277001299 152.41000000000003 1.4699999999999989 C 157.24558975940698 -0.8415083667058212 162.94703399389135 -0.3976737530587495 167.36665384022237 2.634315637514681 C 171.7862736865534 5.666305028088112 174.25262375329837 10.825817880235443 173.83665384022237 16.169315637514693 C 173.4206839271464 21.51281339479394 170.18558975940698 26.228491633294194 165.34999999999997 28.540000000000006 C 140.97142747753603 40.206576656250725 118.76795098426564 55.95700925779832 99.70000000000013 75.10999999999984 C 6.91 168.05 6.91 319.26 99.7 412.2 C 154.32835352804443 466.83295621321446 232.0815948587114 491.54138355040385 308.2264521054504 478.4655421375631 C 384.3713093521893 465.38970072472233 449.4272470439812 416.15761880709664 482.69999999999993 346.4300000000001 C 486.2649980601578 338.9493030635419 495.2193030635419 335.77500193984224 502.7 339.34000000000003 C 510.18069693645805 342.9049980601578 513.3549980601578 351.8593030635419 509.78999999999996 359.34000000000003 C 465.27008144963503 452.53415004143403 371.2119602387574 511.9028459152973 267.93 511.99999999999994 Z" stroke-linecap="round" />
</g>
		<g transform="matrix(1 0 0 1 59.21 -59.72)" id="night"  >
<path style="stroke: none; stroke-width: 1; stroke-dasharray: none; stroke-linecap: butt; stroke-dashoffset: 0; stroke-linejoin: miter; stroke-miterlimit: 4; fill: rgb(255,255,255); fill-rule: nonzero; opacity: 1;" vector-effect="non-scaling-stroke"  transform=" translate(-315.21, -196.28)" d="M 387.47 392.54 C 295.31921934020465 392.5656934993179 209.60364287751642 345.2962838931969 160.45329226707372 267.34751821191 C 111.30294165663099 189.39875253062306 105.59655743558358 91.67979678526137 145.3400000000001 8.54000000000002 C 148.91722168093088 1.0839302352586948 157.85417237691942 -2.070348347038955 165.31906248786393 1.4884305057045353 C 172.78395259880844 5.047209358448025 175.96031427642993 13.976335161694912 172.42000000000002 21.450000000000017 C 128.8526896081786 112.50016573764012 147.39643326984594 221.1238433252402 218.7032246980387 292.56322120498703 C 290.01001612623145 364.00259908473384 398.5990584722992 382.74809571748295 489.73 339.35 C 494.5707558096085 336.98716433287956 500.3067802870328 337.40136656070786 504.7578410722896 340.4351706222821 C 509.2089018575463 343.4689746838563 511.69147390757274 348.6564958941817 511.26194480565744 354.025985064362 C 510.83241570374213 359.3954742345422 507.5567458831499 364.1223683012217 502.68 366.41 C 466.7144210847019 383.62741812134516 427.3443285232588 392.5566822358362 387.47 392.5400000000001 Z" stroke-linecap="round" />
</g>
		<g transform="matrix(1 0 0 1 20.37 -77.44)" id="night"  >
<path style="stroke: none; stroke-width: 1; stroke-dasharray: none; stroke-linecap: butt; stroke-dashoffset: 0; stroke-linejoin: miter; stroke-miterlimit: 4; fill: rgb(255,255,255); fill-rule: nonzero; opacity: 1;" vector-effect="non-scaling-stroke"  transform=" translate(-276.37, -178.56)" d="M 235.86 255.94 C 231.4364361056271 255.94195158455508 227.2375617894295 253.99126799060406 224.38598970566346 250.60948473507625 C 221.53441762189746 247.22770147954847 220.32094267715573 242.75968283976889 221.07000000000002 238.4 L 227.48000000000002 201.06 L 200.34000000000003 174.61 C 196.23654323012582 170.6267777132396 194.75501752295983 164.65685162058438 196.52006639146714 159.21727261667678 C 198.28511525997445 153.77769361276916 202.9895971460248 149.8150194958901 208.65 149 L 246.15 143.55 L 262.92 109.55000000000001 C 265.4487433768289 104.4276564679702 270.6674758060751 101.18630408249483 276.38 101.19000000000001 L 276.38 101.19000000000001 C 282.08891958243447 101.19011177246666 287.3028515987855 104.43089033430267 289.83 109.55 L 306.59999999999997 143.55 L 344.1 149 C 349.75173217695834 149.82073056353863 354.4470658891449 153.77962064192772 356.2109646810663 159.2114100625377 C 357.9748634729877 164.64319948314767 356.50125686312435 170.60536795451193 352.41 174.59 L 325.27000000000004 201.04 L 331.68000000000006 238.38 C 332.6501518618628 244.01032324580012 330.33760474932205 249.70287467589185 325.7157723407519 253.06150530076917 C 321.0939399321818 256.4201359256465 314.965469445076 256.86157156153587 309.9100000000001 254.2 L 276.3800000000001 236.56 L 242.84000000000012 254.2 C 240.68790671847654 255.33495086581087 238.29301341897065 255.9319586510745 235.86 255.94 Z M 243.05 174.34 L 254.05 185.08 C 257.5884564846019 188.52552882200848 259.2040813553303 193.49207935054372 258.37 198.36 L 255.77 213.52 L 269.39 206.36 C 273.7704737945379 204.04866554856216 279.00952620546207 204.04866554856216 283.39 206.36 L 297 213.52 L 294.4 198.36 C 293.5659186446697 193.49207935054372 295.18154351539806 188.52552882200848 298.71999999999997 185.08 L 309.71999999999997 174.34 L 294.49999999999994 172.13 C 289.611236975631 171.42098760547418 285.3849860788485 168.3504106264844 283.19999999999993 163.92 L 276.3999999999999 150.11999999999998 L 269.5899999999999 163.92 C 267.40501392115135 168.3504106264844 263.17876302436883 171.42098760547418 258.2899999999999 172.13 Z" stroke-linecap="round" />
</g>
		<g transform="matrix(1 0 0 1 175.45 -178.64)" id="night"  >
<path style="stroke: none; stroke-width: 1; stroke-dasharray: none; stroke-linecap: butt; stroke-dashoffset: 0; stroke-linejoin: miter; stroke-miterlimit: 4; fill: rgb(255,255,255); fill-rule: nonzero; opacity: 1;" vector-effect="non-scaling-stroke"  transform=" translate(-431.45, -77.36)" d="M 472 154.71 C 469.5615472417223 154.71416250506607 467.1588431012796 154.12378377341446 465 152.99 L 431.46 135.35000000000002 L 397.9 153 C 392.84627196924714 155.6597356077544 386.7206700863414 155.21899381840043 382.09976685165043 151.86316101452059 C 377.4788636169594 148.5073282106407 375.164441119289 142.81868160050416 376.13 137.19 L 382.54 99.84 L 355.4 73.38 C 351.3083211616849 69.3939958980755 349.83576077477846 63.42999270802918 351.60196884542796 57.997629183038725 C 353.36817691607746 52.56526565804827 358.06654086289234 48.60759660073196 363.71999999999997 47.78999999999999 L 401.21999999999997 42.33999999999999 L 418 8.37 C 420.5252590819741 3.245563605549896 425.74213891365656 0.0004581289681375722 431.45500000000004 0.0004581289681375722 C 437.16786108634346 0.0004581289681375722 442.3847409180259 3.245563605549888 444.91 8.36999999999999 L 461.68 42.37 L 499.18 47.82 C 504.8317321769583 48.64073056353862 509.5270658891448 52.599620641927714 511.2909646810662 58.03141006253768 C 513.0548634729877 63.46319948314765 511.58125686312434 69.42536795451191 507.49 73.40999999999998 L 480.34 99.83 L 486.73999999999995 137.18 C 487.48430626525817 141.52954037752644 486.2756391455109 145.98616010532496 483.43571224665203 149.36363083375076 C 480.59578534779314 152.74110156217657 476.4127448818365 154.69673651398386 472 154.71 Z M 431.49 103.41000000000001 C 433.92845275827773 103.40583749493393 436.3311568987204 103.99621622658556 438.49 105.13000000000001 L 452 112.29 L 449.4 97.13000000000001 C 448.5659186446697 92.26207935054371 450.18154351539806 87.29552882200848 453.71999999999997 83.85000000000001 L 464.71999999999997 73.11000000000001 L 449.54 70.9 C 444.6549511461282 70.18790619986034 440.4330409712938 67.11776602843513 438.25 62.690000000000005 L 431.44 48.9 L 424.63 62.69 C 422.4450139211514 67.12041062648441 418.2187630243689 70.19098760547419 413.33 70.9 L 398.10999999999996 73.11 L 409.10999999999996 83.85 C 412.644823627801 87.29748746579669 414.2566210235959 92.26376807279358 413.41999999999996 97.13 L 410.81999999999994 112.28999999999999 L 424.43999999999994 105.13 C 426.5988431012796 103.99621622658553 429.0015472417223 103.4058374949339 431.44 103.41 Z" stroke-linecap="round" />
</g>
</g>
</g>
</svg>
